<svg width="26" height="26" viewBox="0 0 26 26" fill="none" xmlns="http://www.w3.org/2000/svg">
<path d="M13 7.072V3.25C13 2.96268 13.1141 2.68713 13.3173 2.48397C13.5205 2.2808 13.796 2.16667 14.0833 2.16667" stroke="black" stroke-width="1.8" stroke-linecap="round" stroke-linejoin="round"/>
<path d="M19.7569 22.75C22.3994 19.7617 23.8503 15.9057 23.8334 11.9167C23.8334 10.6619 23.4702 9.43397 22.7877 8.38108C22.1051 7.32819 21.1324 6.49536 19.987 5.98312C18.8415 5.47088 17.5723 5.30112 16.3325 5.49434C15.0927 5.68756 13.9354 6.23549 13.0001 7.072C12.0649 6.23549 10.9075 5.68756 9.66769 5.49434C8.42789 5.30112 7.15867 5.47088 6.01323 5.98312C4.86778 6.49536 3.89509 7.32819 3.21255 8.38108C2.53001 9.43397 2.1668 10.6619 2.16677 11.9167C2.15994 15.9039 3.60962 19.7564 6.24336 22.75C6.72837 23.2926 7.38147 23.6567 8.09803 23.784C8.81459 23.9113 9.55314 23.7944 10.1954 23.452C11.0585 22.9915 12.0218 22.7506 13.0001 22.7506C13.9784 22.7506 14.9417 22.9915 15.8049 23.452C16.4471 23.7944 17.1856 23.9113 17.9022 23.784C18.6187 23.6567 19.2718 23.2926 19.7569 22.75Z" stroke="black" stroke-width="1.8" stroke-linecap="round" stroke-linejoin="round"/>
</svg>
