<svg width="30" height="31" viewBox="0 0 30 31" fill="none" xmlns="http://www.w3.org/2000/svg">
<path d="M24.9502 11.7C24.1127 10.775 22.8502 10.2375 21.1002 10.05V9.1C21.1002 7.3875 20.3752 5.7375 19.1002 4.5875C17.8127 3.4125 16.1377 2.8625 14.4002 3.025C11.4127 3.3125 8.90017 6.2 8.90017 9.325V10.05C7.15017 10.2375 5.88767 10.775 5.05017 11.7C3.83767 13.05 3.87517 14.85 4.01267 16.1L4.88767 23.0625C5.15017 25.5 6.13767 28 11.5127 28H18.4877C23.8627 28 24.8502 25.5 25.1127 23.075L25.9877 16.0875C26.1252 14.85 26.1627 13.05 24.9502 11.7ZM14.5752 4.7625C15.8252 4.65 17.0127 5.0375 17.9377 5.875C18.8502 6.7 19.3627 7.875 19.3627 9.1V9.975H10.6377V9.325C10.6377 7.1 12.4752 4.9625 14.5752 4.7625ZM15.0002 23.725C12.3877 23.725 10.2627 21.6 10.2627 18.9875C10.2627 16.375 12.3877 14.25 15.0002 14.25C17.6127 14.25 19.7377 16.375 19.7377 18.9875C19.7377 21.6 17.6127 23.725 15.0002 23.725Z" fill="white"/>
<path d="M16.9999 19.6375L16.3374 18.975L16.9624 18.35C17.3249 17.9875 17.3249 17.3875 16.9624 17.025C16.5999 16.6625 15.9999 16.6625 15.6374 17.025L15.0124 17.65L14.3499 16.9875C13.9874 16.625 13.3874 16.625 13.0249 16.9875C12.6624 17.35 12.6624 17.95 13.0249 18.3125L13.6874 18.975L12.9999 19.6625C12.6374 20.025 12.6374 20.625 12.9999 20.9875C13.1874 21.175 13.4249 21.2625 13.6624 21.2625C13.8999 21.2625 14.1374 21.175 14.3249 20.9875L15.0124 20.3L15.6749 20.9625C15.8624 21.15 16.0999 21.2375 16.3374 21.2375C16.5749 21.2375 16.8124 21.15 16.9999 20.9625C17.3624 20.6 17.3624 20.0125 16.9999 19.6375Z" fill="white"/>
</svg>
