<svg width="24" height="24" viewBox="0 0 24 24" fill="none" xmlns="http://www.w3.org/2000/svg">
<g clip-path="url(#clip0_158_5463)">
<mask id="mask0_158_5463" style="mask-type:luminance" maskUnits="userSpaceOnUse" x="0" y="0" width="24" height="24">
<path d="M0 6.86646e-05H23.9999V24H0V6.86646e-05Z" fill="white"/>
</mask>
<g mask="url(#mask0_158_5463)">
<path d="M22.5435 19.5313H1.45605C1.45605 19.5313 3.78583 21.8614 4.78033 22.8559C5.06281 23.1383 5.44587 23.2969 5.84528 23.2969H18.1539C18.3516 23.2969 18.5475 23.258 18.7302 23.1823C18.9129 23.1067 19.079 22.9958 19.2188 22.8559L22.5435 19.5313Z" stroke="black" stroke-width="1.3" stroke-miterlimit="10" stroke-linecap="round" stroke-linejoin="round"/>
<path d="M0.703125 19.5313H23.2968" stroke="black" stroke-width="1.3" stroke-miterlimit="10" stroke-linecap="round" stroke-linejoin="round"/>
<path d="M10.4937 19.5313V18.025C10.4937 16.8267 10.9697 15.6774 11.8169 14.8299C12.6645 13.9825 13.8139 13.5064 15.0124 13.5063C16.2108 13.5065 17.3601 13.9826 18.2075 14.8299C19.0548 15.6774 19.5309 16.8266 19.5311 18.025V19.5313H10.4937Z" stroke="black" stroke-width="1.3" stroke-miterlimit="10" stroke-linecap="round" stroke-linejoin="round"/>
<path d="M13.5063 19.5313V18.0243C13.5063 17.1928 14.1804 16.5188 15.0118 16.5188H15.0126C15.412 16.5189 15.795 16.6777 16.0775 16.9601C16.3599 17.2426 16.5187 17.6256 16.5189 18.025V19.5313H13.5063Z" stroke="black" stroke-width="1.3" stroke-miterlimit="10" stroke-linecap="round" stroke-linejoin="round"/>
<path d="M7.48126 19.5313H4.46875V18.7781C4.46882 18.1789 4.70689 17.6043 5.13059 17.1806C5.55428 16.7569 6.12892 16.5188 6.72812 16.5188H7.48126" stroke="black" stroke-width="1.3" stroke-miterlimit="10" stroke-linecap="round" stroke-linejoin="round"/>
<path d="M8.9873 19.5313H1.45605V18.7781C1.45604 18.0858 1.59239 17.4003 1.85732 16.7607C2.12225 16.121 2.51057 15.5399 3.00011 15.0503C3.48966 14.5608 4.07083 14.1725 4.71045 13.9076C5.35007 13.6426 6.03561 13.5063 6.72793 13.5063H8.9873" stroke="black" stroke-width="1.3" stroke-miterlimit="10" stroke-linecap="round" stroke-linejoin="round"/>
<path d="M7.48145 19.5313V18.025C7.48145 13.8659 10.8532 10.4938 15.0127 10.4938C19.1718 10.4938 22.5439 13.8659 22.5439 18.025V19.5313H7.48145Z" stroke="black" stroke-width="1.3" stroke-miterlimit="10" stroke-linecap="round" stroke-linejoin="round"/>
<path d="M9.51996 6.1957C9.35114 6.36452 9.15072 6.49844 8.93013 6.5898C8.70955 6.68116 8.47313 6.72817 8.23438 6.72815V0.703183C8.71654 0.703313 9.17893 0.894838 9.51996 1.23568L10.4937 2.20946H21.7906C22.19 2.20961 22.5731 2.36835 22.8555 2.65079C23.138 2.93323 23.2967 3.31625 23.2969 3.71569C23.2969 4.1152 23.138 4.49855 22.8555 4.78097C22.573 5.06332 22.19 5.22194 21.7906 5.22197H10.4937L9.51996 6.1957Z" stroke="black" stroke-width="1.3" stroke-miterlimit="10" stroke-linecap="round" stroke-linejoin="round"/>
<path d="M2.20935 0.703186H0.703125" stroke="black" stroke-width="1.3" stroke-miterlimit="10" stroke-linecap="round" stroke-linejoin="round"/>
<path d="M2.20935 3.7157H0.703125" stroke="black" stroke-width="1.3" stroke-miterlimit="10" stroke-linecap="round" stroke-linejoin="round"/>
<path d="M2.20935 6.72815H0.703125" stroke="black" stroke-width="1.3" stroke-miterlimit="10" stroke-linecap="round" stroke-linejoin="round"/>
<path d="M8.23444 13.5063V0.703186H2.20947V15.7656" stroke="black" stroke-width="1.3" stroke-miterlimit="10" stroke-linecap="round" stroke-linejoin="round"/>
<path d="M5.22168 0.703199V13.5063" stroke="black" stroke-width="1.3" stroke-miterlimit="10" stroke-linecap="round" stroke-linejoin="round"/>
</g>
</g>
<defs>
<clipPath id="clip0_158_5463">
<rect width="24" height="24" fill="white"/>
</clipPath>
</defs>
</svg>
