<svg width="20" height="20" viewBox="0 0 20 20" fill="none" xmlns="http://www.w3.org/2000/svg">
<g clip-path="url(#clip0_158_1590)">
<path d="M18.1673 8.33581C18.5479 10.2036 18.2767 12.1453 17.3989 13.8373C16.5211 15.5293 15.0897 16.8692 13.3436 17.6336C11.5975 18.398 9.64203 18.5406 7.80342 18.0378C5.96482 17.5349 4.35417 16.417 3.24007 14.8703C2.12597 13.3237 1.57577 11.4418 1.68123 9.53863C1.78668 7.63542 2.5414 5.82589 3.81955 4.41179C5.09769 2.99769 6.82199 2.0645 8.70489 1.76786C10.5878 1.47121 12.5155 1.82903 14.1665 2.78165" stroke="white" stroke-width="1.5" stroke-linecap="round" stroke-linejoin="round"/>
<path d="M7.5 9.16913L10 11.6691L18.3333 3.3358" stroke="white" stroke-width="1.5" stroke-linecap="round" stroke-linejoin="round"/>
</g>
<defs>
<clipPath id="clip0_158_1590">
<rect width="20" height="20" fill="white" transform="translate(0 0.00247192)"/>
</clipPath>
</defs>
</svg>
