<svg width="24" height="25" viewBox="0 0 24 25" fill="none" xmlns="http://www.w3.org/2000/svg">
<path d="M10 2.50244V4.50244" stroke="white" stroke-width="1.8" stroke-linecap="round" stroke-linejoin="round"/>
<path d="M14 2.50244V4.50244" stroke="white" stroke-width="1.8" stroke-linecap="round" stroke-linejoin="round"/>
<path d="M16 8.50244C16.2652 8.50244 16.5196 8.6078 16.7071 8.79533C16.8946 8.98287 17 9.23722 17 9.50244V17.5024C17 18.5633 16.5786 19.5807 15.8284 20.3309C15.0783 21.081 14.0609 21.5024 13 21.5024H7C5.93913 21.5024 4.92172 21.081 4.17157 20.3309C3.42143 19.5807 3 18.5633 3 17.5024V9.50244C3 9.23722 3.10536 8.98287 3.29289 8.79533C3.48043 8.6078 3.73478 8.50244 4 8.50244H18C19.0609 8.50244 20.0783 8.92387 20.8284 9.67401C21.5786 10.4242 22 11.4416 22 12.5024C22 13.5633 21.5786 14.5807 20.8284 15.3309C20.0783 16.081 19.0609 16.5024 18 16.5024H17" stroke="white" stroke-width="1.8" stroke-linecap="round" stroke-linejoin="round"/>
<path d="M6 2.50244V4.50244" stroke="white" stroke-width="1.8" stroke-linecap="round" stroke-linejoin="round"/>
</svg>
