<svg width="26" height="26" viewBox="0 0 26 26" fill="none" xmlns="http://www.w3.org/2000/svg">
<path d="M16.6834 16.9325C15.0621 17.4527 13.4536 17.4653 12.0948 16.9685C10.736 16.4716 9.69856 15.4915 9.13521 14.1725C8.57186 12.8535 8.51234 11.2651 8.96542 9.64127C9.4185 8.0174 10.3602 6.44377 11.6521 5.15196C12.9439 3.86015 14.5175 2.91841 16.1414 2.46533C17.7652 2.01225 19.3536 2.07177 20.6726 2.63511C21.9916 3.19846 22.9717 4.23589 23.4685 5.59472C23.9654 6.95354 23.9528 8.56199 23.4326 10.1833C22.6799 9.75398 21.7256 9.64718 20.7301 9.88091C19.7347 10.1146 18.7589 10.6746 17.9668 11.4667C17.1747 12.2588 16.6147 13.2346 16.381 14.2301C16.1473 15.2255 16.2541 16.1798 16.6834 16.9325Z" stroke="black" stroke-width="1.8" stroke-linecap="round" stroke-linejoin="round"/>
<path d="M8.98082 13.7692L6.16415 16.5858C5.82015 16.3963 5.43905 16.2839 5.04727 16.2563C4.65548 16.2288 4.2624 16.2868 3.89526 16.4263C3.52812 16.5658 3.19571 16.7835 2.92109 17.0642C2.64646 17.345 2.43619 17.6821 2.30485 18.0523C2.17351 18.4224 2.12425 18.8167 2.16047 19.2078C2.1967 19.5989 2.31754 19.9774 2.51464 20.3171C2.71173 20.6568 2.98035 20.9496 3.30188 21.1752C3.6234 21.4007 3.99013 21.5536 4.37665 21.6233C4.4525 22.0048 4.60962 22.3655 4.83734 22.6808C5.06505 22.9962 5.35802 23.2587 5.6963 23.4507C6.03458 23.6427 6.41024 23.7595 6.79772 23.7933C7.18521 23.8271 7.57543 23.777 7.94183 23.6465C8.30823 23.516 8.64222 23.3081 8.92108 23.0369C9.19993 22.7658 9.41711 22.4377 9.55784 22.0751C9.69857 21.7125 9.75955 21.3239 9.73662 20.9356C9.7137 20.5473 9.60741 20.1685 9.42499 19.825L12.2308 17.0192" stroke="black" stroke-width="1.8" stroke-linecap="round" stroke-linejoin="round"/>
</svg>
