<svg width="22" height="22" viewBox="0 0 22 22" fill="none" xmlns="http://www.w3.org/2000/svg">
<path d="M1.89015 11.319C1.81376 11.1132 1.81376 10.8868 1.89015 10.681C2.63421 8.87686 3.89721 7.33428 5.51902 6.24882C7.14084 5.16336 9.04844 4.58389 11 4.58389C12.9515 4.58389 14.8591 5.16336 16.4809 6.24882C18.1028 7.33428 19.3658 8.87686 20.1098 10.681C20.1862 10.8868 20.1862 11.1132 20.1098 11.319C19.3658 13.1231 18.1028 14.6657 16.4809 15.7512C14.8591 16.8366 12.9515 17.4161 11 17.4161C9.04844 17.4161 7.14084 16.8366 5.51902 15.7512C3.89721 14.6657 2.63421 13.1231 1.89015 11.319Z" stroke="black" stroke-width="1.5" stroke-linecap="round" stroke-linejoin="round"/>
<path d="M11 13.75C12.5188 13.75 13.75 12.5188 13.75 11C13.75 9.48122 12.5188 8.25 11 8.25C9.48122 8.25 8.25 9.48122 8.25 11C8.25 12.5188 9.48122 13.75 11 13.75Z" stroke="black" stroke-width="1.5" stroke-linecap="round" stroke-linejoin="round"/>
</svg>
