<svg width="20" height="20" viewBox="0 0 20 20" fill="none" xmlns="http://www.w3.org/2000/svg">
<path d="M11.6667 14.1667H4.16675" stroke="black" stroke-width="1.5" stroke-linecap="round" stroke-linejoin="round"/>
<path d="M15.8333 5.83334H8.33325" stroke="black" stroke-width="1.5" stroke-linecap="round" stroke-linejoin="round"/>
<path d="M14.1667 16.6667C15.5475 16.6667 16.6667 15.5474 16.6667 14.1667C16.6667 12.786 15.5475 11.6667 14.1667 11.6667C12.786 11.6667 11.6667 12.786 11.6667 14.1667C11.6667 15.5474 12.786 16.6667 14.1667 16.6667Z" stroke="black" stroke-width="1.5" stroke-linecap="round" stroke-linejoin="round"/>
<path d="M5.83325 8.33334C7.21396 8.33334 8.33325 7.21405 8.33325 5.83334C8.33325 4.45262 7.21396 3.33334 5.83325 3.33334C4.45254 3.33334 3.33325 4.45262 3.33325 5.83334C3.33325 7.21405 4.45254 8.33334 5.83325 8.33334Z" stroke="black" stroke-width="1.5" stroke-linecap="round" stroke-linejoin="round"/>
</svg>
