<svg width="24" height="24" viewBox="0 0 24 24" fill="none" xmlns="http://www.w3.org/2000/svg">
<g clip-path="url(#clip0_158_5719)">
<path d="M21.8839 8.93484C21.796 8.83731 21.6886 8.75933 21.5686 8.70595C21.4486 8.65257 21.3188 8.625 21.1875 8.625H10.8281C10.6968 8.62499 10.567 8.65256 10.447 8.70594C10.327 8.75931 10.2196 8.8373 10.1317 8.93484C10.0438 9.03238 9.97736 9.1473 9.9367 9.27216C9.89604 9.39702 9.88207 9.52902 9.89569 9.65963L11.1706 21.8991C11.2295 22.476 11.5006 23.0104 11.9314 23.3987C12.3622 23.7869 12.9218 24.0012 13.5017 24H18.5139C19.0938 24.0012 19.6535 23.7869 20.0842 23.3987C20.515 23.0104 20.7861 22.476 20.845 21.8991C20.8987 21.3841 20.5246 20.9231 20.0097 20.8695C19.4945 20.8161 19.0337 21.1898 18.9801 21.7049C18.9683 21.8202 18.9141 21.9271 18.8279 22.0048C18.7418 22.0824 18.6299 22.1252 18.5139 22.125H13.5017C13.3858 22.1252 13.2738 22.0824 13.1877 22.0047C13.1015 21.9271 13.0473 21.8202 13.0356 21.7048L12.259 14.25H19.7566L19.4201 17.481C19.3664 17.996 19.7404 18.4569 20.2554 18.5106C20.7703 18.5645 21.2313 18.1902 21.285 17.6752L22.12 9.65963C22.1336 9.52902 22.1196 9.39701 22.0789 9.27216C22.0382 9.14731 21.9718 9.03239 21.8839 8.93484ZM12.0637 12.375L11.8683 10.5H20.1473L19.9519 12.375H12.0637ZM9.70313 23.0625C9.70313 23.5803 9.28341 24 8.76563 24H5.625C3.55725 24 1.875 22.3177 1.875 20.25V13.2445C1.875 11.2705 2.53416 9.31884 3.73106 7.74905C4.68033 6.50395 5.20313 4.95605 5.20313 3.39038V1.875H4.96875C4.45097 1.875 4.03125 1.45528 4.03125 0.9375C4.03125 0.419719 4.45097 0 4.96875 0H12.4219C12.9397 0 13.3594 0.419719 13.3594 0.9375C13.3594 1.45528 12.9397 1.875 12.4219 1.875H12.1875V3.48633C12.1875 4.19831 12.2929 4.90462 12.5009 5.58558C12.6521 6.08077 12.3732 6.60478 11.878 6.756C11.7892 6.7832 11.6968 6.79706 11.6039 6.79711C11.2024 6.79711 10.8309 6.53714 10.7076 6.13312C10.4455 5.2753 10.3124 4.38329 10.3125 3.48633V1.875H7.07813V3.39038C7.07813 5.36438 6.41897 7.31606 5.22206 8.88586C4.2728 10.131 3.75 11.6789 3.75 13.2445V20.25C3.75 21.2839 4.59113 22.125 5.625 22.125H8.76563C9.28341 22.125 9.70313 22.5447 9.70313 23.0625Z" fill="black" stroke="#F4F4F4" stroke-width="0.3"/>
</g>
<defs>
<clipPath id="clip0_158_5719">
<rect width="24" height="24" fill="white"/>
</clipPath>
</defs>
</svg>
