<svg width="6" height="11" viewBox="0 0 6 11" fill="none" xmlns="http://www.w3.org/2000/svg">
<mask id="path-1-inside-1_158_1778" fill="white">
<path d="M0.5 10.5025L5.5 5.50247L0.5 0.502472"/>
</mask>
<path d="M0.5 10.5025L5.5 5.50247L0.5 0.502472" fill="black"/>
<path d="M-0.56066 9.44181C-1.14645 10.0276 -1.14645 10.9773 -0.56066 11.5631C0.0251263 12.1489 0.974874 12.1489 1.56066 11.5631L0.5 10.5025L-0.56066 9.44181ZM5.5 5.50247L6.56066 6.56313C7.14645 5.97735 7.14645 5.0276 6.56066 4.44181L5.5 5.50247ZM1.56066 -0.558188C0.974874 -1.14397 0.0251263 -1.14397 -0.56066 -0.558188C-1.14645 0.0275982 -1.14645 0.977346 -0.56066 1.56313L0.5 0.502472L1.56066 -0.558188ZM0.5 10.5025L1.56066 11.5631L6.56066 6.56313L5.5 5.50247L4.43934 4.44181L-0.56066 9.44181L0.5 10.5025ZM5.5 5.50247L6.56066 4.44181L1.56066 -0.558188L0.5 0.502472L-0.56066 1.56313L4.43934 6.56313L5.5 5.50247Z" fill="black" mask="url(#path-1-inside-1_158_1778)"/>
</svg>
