<svg width="15" height="16" viewBox="0 0 15 16" fill="none" xmlns="http://www.w3.org/2000/svg">
<path d="M1.88135 7.5125V10.3188C1.88135 13.125 3.00635 14.25 5.8126 14.25H9.18135C11.9876 14.25 13.1126 13.125 13.1126 10.3188V7.5125" stroke="white" stroke-width="1.2" stroke-linecap="round" stroke-linejoin="round"/>
<path d="M7.50005 8C8.6438 8 9.48755 7.06875 9.37505 5.925L8.96255 1.75H6.0438L5.62505 5.925C5.51255 7.06875 6.3563 8 7.50005 8Z" stroke="white" stroke-width="1.2" stroke-linecap="round" stroke-linejoin="round"/>
<path d="M11.4438 8C12.7063 8 13.6313 6.975 13.5063 5.71875L13.3313 4C13.1063 2.375 12.4813 1.75 10.8438 1.75H8.9375L9.375 6.13125C9.48125 7.1625 10.4125 8 11.4438 8Z" stroke="white" stroke-width="1.2" stroke-linecap="round" stroke-linejoin="round"/>
<path d="M3.52499 8C4.55624 8 5.48749 7.1625 5.58749 6.13125L5.72499 4.75L6.02499 1.75H4.11874C2.48124 1.75 1.85624 2.375 1.63124 4L1.46249 5.71875C1.33749 6.975 2.26249 8 3.52499 8Z" stroke="white" stroke-width="1.2" stroke-linecap="round" stroke-linejoin="round"/>
<path d="M7.5 11.125C6.45625 11.125 5.9375 11.6438 5.9375 12.6875V14.25H9.0625V12.6875C9.0625 11.6438 8.54375 11.125 7.5 11.125Z" stroke="white" stroke-width="1.2" stroke-linecap="round" stroke-linejoin="round"/>
</svg>
