<svg width="15" height="16" viewBox="0 0 15 16" fill="none" xmlns="http://www.w3.org/2000/svg">
<path d="M2.75297 10.204L5.58422 13.0352C6.74672 14.1977 8.63422 14.1977 9.80297 13.0352L12.5467 10.2915C13.7092 9.12898 13.7092 7.24148 12.5467 6.07273L9.70922 3.24773C9.11547 2.65398 8.29672 2.33523 7.45922 2.37898L4.33422 2.52898C3.08422 2.58523 2.09047 3.57898 2.02797 4.82273L1.87797 7.94773C1.84047 8.79148 2.15922 9.61023 2.75297 10.204Z" stroke="white" stroke-width="1.2" stroke-linecap="round" stroke-linejoin="round"/>
<path d="M6.08423 8.14148C6.94717 8.14148 7.64673 7.44192 7.64673 6.57898C7.64673 5.71603 6.94717 5.01648 6.08423 5.01648C5.22128 5.01648 4.52173 5.71603 4.52173 6.57898C4.52173 7.44192 5.22128 8.14148 6.08423 8.14148Z" stroke="white" stroke-width="1.2" stroke-linecap="round"/>
<path d="M8.27173 11.2665L10.7717 8.76648" stroke="white" stroke-width="1.2" stroke-miterlimit="10" stroke-linecap="round" stroke-linejoin="round"/>
</svg>
