<svg width="56" height="56" viewBox="0 0 56 56" fill="none" xmlns="http://www.w3.org/2000/svg">
<g clip-path="url(#clip0_165_6643)">
<path d="M47.6 0H8.4C3.76081 0 0 3.76081 0 8.4V47.6C0 52.2392 3.76081 56 8.4 56H47.6C52.2392 56 56 52.2392 56 47.6V8.4C56 3.76081 52.2392 0 47.6 0Z" fill="#37AEE2"/>
<path d="M21.7656 44.1875C20.5625 44.1875 20.6719 43.75 20.3438 42.6562L16.8438 31.1719L43.6406 15.4219" fill="#C8DAEA"/>
<path d="M21.7656 44.1875C22.5312 44.1875 22.9688 43.75 23.5156 43.3125L28.4375 38.6094L22.3125 34.8906" fill="#A9C9DD"/>
<path d="M22.3124 34.8906L37.0781 45.7188C38.6093 46.7031 39.9218 46.1563 40.3593 44.1875L46.3749 15.9688C46.9218 13.5625 45.3906 12.4688 43.7499 13.2344L8.64056 26.7969C6.34368 27.6719 6.34368 29.0938 8.20306 29.6406L17.2812 32.4844L38.0624 19.25C39.0468 18.7031 39.9218 18.9219 39.2656 19.6875" fill="#F6FBFE"/>
</g>
<defs>
<clipPath id="clip0_165_6643">
<rect width="56" height="56" fill="white"/>
</clipPath>
</defs>
</svg>
