<svg width="22" height="22" viewBox="0 0 22 22" fill="none" xmlns="http://www.w3.org/2000/svg">
<path d="M9.1665 10.0833V15.5833" stroke="#EB4335" stroke-width="1.5" stroke-linecap="round" stroke-linejoin="round"/>
<path d="M12.8335 10.0833V15.5833" stroke="#EB4335" stroke-width="1.5" stroke-linecap="round" stroke-linejoin="round"/>
<path d="M17.4168 5.5V18.3333C17.4168 18.8196 17.2237 19.2859 16.8799 19.6297C16.536 19.9735 16.0697 20.1667 15.5835 20.1667H6.41683C5.9306 20.1667 5.46428 19.9735 5.12047 19.6297C4.77665 19.2859 4.5835 18.8196 4.5835 18.3333V5.5" stroke="#EB4335" stroke-width="1.5" stroke-linecap="round" stroke-linejoin="round"/>
<path d="M2.75 5.5H19.25" stroke="#EB4335" stroke-width="1.5" stroke-linecap="round" stroke-linejoin="round"/>
<path d="M7.3335 5.49999V3.66666C7.3335 3.18043 7.52665 2.71412 7.87047 2.3703C8.21428 2.02648 8.6806 1.83333 9.16683 1.83333H12.8335C13.3197 1.83333 13.786 2.02648 14.1299 2.3703C14.4737 2.71412 14.6668 3.18043 14.6668 3.66666V5.49999" stroke="#EB4335" stroke-width="1.5" stroke-linecap="round" stroke-linejoin="round"/>
</svg>
