<svg width="24" height="24" viewBox="0 0 24 24" fill="none" xmlns="http://www.w3.org/2000/svg">
<path d="M21.75 21.75H9.75C9.55109 21.75 9.36032 21.671 9.21967 21.5303C9.07902 21.3897 9 21.1989 9 21C9 20.8011 8.92098 20.6103 8.78033 20.4697C8.63968 20.329 8.44891 20.25 8.25 20.25C8.05109 20.25 7.86032 20.329 7.71967 20.4697C7.57902 20.6103 7.5 20.8011 7.5 21C7.5 21.1989 7.42098 21.3897 7.28033 21.5303C7.13968 21.671 6.94891 21.75 6.75 21.75H2.25C2.05109 21.75 1.86032 21.671 1.71967 21.5303C1.57902 21.3897 1.5 21.1989 1.5 21V9C1.5 8.80109 1.57902 8.61032 1.71967 8.46967C1.86032 8.32902 2.05109 8.25 2.25 8.25H21.75C21.9489 8.25 22.1397 8.32902 22.2803 8.46967C22.421 8.61032 22.5 8.80109 22.5 9V13.5C22.5 13.6989 22.421 13.8897 22.2803 14.0303C22.1397 14.171 21.9489 14.25 21.75 14.25C21.5511 14.25 21.3603 14.329 21.2197 14.4697C21.079 14.6103 21 14.8011 21 15C21 15.1989 21.079 15.3897 21.2197 15.5303C21.3603 15.671 21.5511 15.75 21.75 15.75C21.9489 15.75 22.1397 15.829 22.2803 15.9697C22.421 16.1103 22.5 16.3011 22.5 16.5V21C22.5 21.1989 22.421 21.3897 22.2803 21.5303C22.1397 21.671 21.9489 21.75 21.75 21.75ZM10.3725 20.25H21V17.1217C20.561 16.9668 20.1809 16.6796 19.912 16.2996C19.6432 15.9196 19.4988 15.4655 19.4988 15C19.4988 14.5345 19.6432 14.0804 19.912 13.7004C20.1809 13.3204 20.561 13.0332 21 12.8782V9.75H3V20.25H6.1275C6.28245 19.8109 6.5698 19.4306 6.94995 19.1616C7.3301 18.8926 7.78432 18.7482 8.25 18.7482C8.71568 18.7482 9.1699 18.8926 9.55005 19.1616C9.9302 19.4306 10.2175 19.8109 10.3725 20.25Z" fill="black"/>
<path d="M15.75 18.75C15.305 18.75 14.87 18.618 14.5 18.3708C14.13 18.1236 13.8416 17.7722 13.6713 17.361C13.501 16.9499 13.4564 16.4975 13.5432 16.061C13.63 15.6246 13.8443 15.2237 14.159 14.909C14.4737 14.5943 14.8746 14.38 15.311 14.2932C15.7475 14.2064 16.1999 14.251 16.611 14.4213C17.0222 14.5916 17.3736 14.88 17.6208 15.25C17.868 15.62 18 16.055 18 16.5C17.9994 17.0966 17.7622 17.6685 17.3403 18.0903C16.9185 18.5122 16.3466 18.7494 15.75 18.75ZM15.75 15.75C15.6017 15.75 15.4567 15.794 15.3333 15.8764C15.21 15.9588 15.1139 16.0759 15.0571 16.213C15.0003 16.35 14.9855 16.5008 15.0144 16.6463C15.0433 16.7918 15.1148 16.9254 15.2197 17.0303C15.3246 17.1352 15.4582 17.2066 15.6037 17.2356C15.7492 17.2645 15.9 17.2497 16.037 17.1929C16.1741 17.1361 16.2912 17.04 16.3736 16.9167C16.456 16.7933 16.5 16.6483 16.5 16.5C16.5 16.3011 16.421 16.1103 16.2803 15.9697C16.1397 15.829 15.9489 15.75 15.75 15.75ZM7.5 17.25C6.90666 17.25 6.32664 17.0741 5.83329 16.7444C5.33994 16.4148 4.95542 15.9462 4.72836 15.3981C4.5013 14.8499 4.44189 14.2467 4.55764 13.6647C4.6734 13.0828 4.95912 12.5482 5.37868 12.1287C5.79824 11.7091 6.33279 11.4234 6.91473 11.3076C7.49667 11.1919 8.09987 11.2513 8.64805 11.4784C9.19623 11.7054 9.66476 12.0899 9.99441 12.5833C10.3241 13.0766 10.5 13.6567 10.5 14.25C10.4992 15.0454 10.1829 15.808 9.62044 16.3704C9.05801 16.9329 8.2954 17.2492 7.5 17.25ZM7.5 12.75C7.20333 12.75 6.91332 12.838 6.66664 13.0028C6.41997 13.1676 6.22771 13.4019 6.11418 13.676C6.00065 13.9501 5.97094 14.2517 6.02882 14.5426C6.0867 14.8336 6.22956 15.1009 6.43934 15.3107C6.64912 15.5204 6.91639 15.6633 7.20736 15.7212C7.49834 15.7791 7.79994 15.7494 8.07402 15.6358C8.34811 15.5223 8.58238 15.33 8.7472 15.0834C8.91203 14.8367 9 14.5467 9 14.25C8.9996 13.8523 8.84144 13.471 8.56022 13.1898C8.279 12.9086 7.8977 12.7504 7.5 12.75ZM21.7492 9.75C21.6446 9.75019 21.5411 9.72821 21.4455 9.6855L8.0955 3.75225C6.73101 3.79412 5.43633 4.36516 4.48536 5.34455C3.53438 6.32395 3.00169 7.63487 3 9C3 9.19891 2.92098 9.38968 2.78033 9.53033C2.63968 9.67098 2.44891 9.75 2.25 9.75C2.05109 9.75 1.86032 9.67098 1.71967 9.53033C1.57902 9.38968 1.5 9.19891 1.5 9C1.50199 7.2104 2.21378 5.49466 3.47922 4.22922C4.74466 2.96378 6.4604 2.25199 8.25 2.25C8.3549 2.24993 8.45864 2.2719 8.5545 2.3145L22.0545 8.3145C22.2116 8.38425 22.34 8.50587 22.4182 8.65899C22.4964 8.81212 22.5196 8.98745 22.4839 9.15563C22.4482 9.32381 22.3558 9.47463 22.2222 9.58283C22.0886 9.69103 21.9212 9.75005 21.7492 9.75Z" fill="black"/>
</svg>
