<svg width="15" height="16" viewBox="0 0 15 16" fill="none" xmlns="http://www.w3.org/2000/svg">
<path d="M4.53338 12.0615L4.98634 12.3256C5.74306 12.7668 6.60306 13.0025 7.5005 13.0025C10.2619 13.0025 12.5005 10.7639 12.5005 8.00247C12.5005 5.24105 10.2619 3.00247 7.5005 3.00247C4.73906 3.00247 2.50049 5.24105 2.50049 8.00247C2.50049 8.90016 2.73626 9.76047 3.17779 10.5173L3.44178 10.9698L3.03334 12.4708L4.53338 12.0615ZM1.2531 14.2525L2.09808 11.1472C1.55921 10.2235 1.25049 9.14903 1.25049 8.00247C1.25049 4.55069 4.04871 1.75247 7.5005 1.75247C10.9523 1.75247 13.7505 4.55069 13.7505 8.00247C13.7505 11.4542 10.9523 14.2525 7.5005 14.2525C6.35431 14.2525 5.2802 13.944 4.35666 13.4054L1.2531 14.2525ZM5.24508 5.07018C5.32875 5.0643 5.41271 5.0634 5.49649 5.06748C5.53034 5.06971 5.56403 5.07362 5.59774 5.07752C5.69728 5.08901 5.80674 5.14963 5.84354 5.23306C6.02999 5.65582 6.2109 6.081 6.38625 6.50849C6.42494 6.60286 6.40163 6.72518 6.328 6.84353C6.29063 6.90422 6.23193 6.98935 6.16393 7.07641C6.09325 7.16685 5.94112 7.33316 5.94112 7.33316C5.94112 7.33316 5.87949 7.40703 5.90272 7.49897C5.91177 7.53372 5.94063 7.58435 5.9668 7.62691C5.9813 7.65047 5.99475 7.67153 6.00348 7.6861C6.16343 7.95316 6.37844 8.22391 6.64106 8.47847C6.71631 8.55141 6.78931 8.62585 6.86781 8.69497C7.1605 8.95303 7.49163 9.16391 7.84925 9.3201L7.85244 9.32153C7.90525 9.34428 7.93238 9.35672 8.00969 9.38953C8.04869 9.40603 8.08856 9.42028 8.1295 9.4311C8.14431 9.43497 8.1595 9.43716 8.17475 9.43822C8.27581 9.44428 8.33425 9.37947 8.35919 9.34966C8.81138 8.80185 8.85275 8.7661 8.85588 8.76635V8.76735C8.91531 8.70472 9.00875 8.68297 9.09213 8.6881C9.13019 8.69041 9.16806 8.69772 9.20269 8.71353C9.53506 8.86516 10.0785 9.10166 10.0785 9.10166L10.4419 9.26503C10.5028 9.29441 10.5584 9.3636 10.5611 9.43085C10.5627 9.47266 10.5672 9.54016 10.5523 9.66366C10.5327 9.82535 10.4835 10.02 10.4346 10.122C10.4003 10.1936 10.3558 10.2571 10.304 10.3108C10.2338 10.3837 10.1817 10.428 10.0973 10.4908C10.0459 10.5291 10.0193 10.5471 10.0193 10.5471C9.9325 10.6018 9.88356 10.6292 9.78013 10.6843C9.61925 10.77 9.4415 10.8192 9.25944 10.8286C9.14338 10.8345 9.02763 10.8429 8.91169 10.8367C8.90656 10.8363 8.55656 10.7826 8.55656 10.7826C7.66788 10.5488 6.846 10.111 6.15634 9.50372C6.01533 9.3796 5.88456 9.24528 5.75109 9.11241C5.19543 8.55922 4.77476 7.96272 4.51968 7.39847C4.39389 7.12022 4.31424 6.82222 4.31299 6.51558C4.31068 6.13625 4.43487 5.76697 4.66593 5.46613C4.71148 5.40683 4.75471 5.34532 4.82931 5.27488C4.9083 5.20029 4.95858 5.16025 5.01273 5.13254C5.08492 5.09561 5.16421 5.07586 5.24508 5.07018Z" fill="white"/>
</svg>
